<mxfile host="Electron" modified="2023-12-09T08:01:44.709Z" agent="Mozilla/5.0 (Windows NT 10.0; Win64; x64) AppleWebKit/537.36 (KHTML, like Gecko) draw.io/22.1.2 Chrome/114.0.5735.289 Electron/25.9.4 Safari/537.36" etag="DBOKq5vj0IhGxueA6_wg" version="22.1.2" type="device">
  <diagram name="第 1 页" id="wVpAYVqgKlU2BSyeh4Ir">
    <mxGraphModel dx="1134" dy="773" grid="1" gridSize="10" guides="1" tooltips="1" connect="1" arrows="0" fold="1" page="1" pageScale="1" pageWidth="827" pageHeight="1169" math="0" shadow="0">
      <root>
        <mxCell id="0" />
        <mxCell id="1" parent="0" />
        <mxCell id="Td3LOWsatYxlO6JrIiXO-8" style="rounded=0;orthogonalLoop=1;jettySize=auto;html=1;exitX=0.5;exitY=0.5;exitDx=0;exitDy=0;exitPerimeter=0;" parent="1" source="Td3LOWsatYxlO6JrIiXO-1" target="Td3LOWsatYxlO6JrIiXO-5" edge="1">
          <mxGeometry relative="1" as="geometry" />
        </mxCell>
        <mxCell id="Td3LOWsatYxlO6JrIiXO-9" style="rounded=0;orthogonalLoop=1;jettySize=auto;html=1;entryX=0;entryY=0.5;entryDx=0;entryDy=0;" parent="1" source="Td3LOWsatYxlO6JrIiXO-1" target="Td3LOWsatYxlO6JrIiXO-4" edge="1">
          <mxGeometry relative="1" as="geometry" />
        </mxCell>
        <mxCell id="Td3LOWsatYxlO6JrIiXO-11" style="rounded=0;orthogonalLoop=1;jettySize=auto;html=1;entryX=0;entryY=0.5;entryDx=0;entryDy=0;" parent="1" source="Td3LOWsatYxlO6JrIiXO-1" target="Td3LOWsatYxlO6JrIiXO-10" edge="1">
          <mxGeometry relative="1" as="geometry" />
        </mxCell>
        <mxCell id="9Ehmmtm3_JVQKLBLFFYA-2" style="rounded=0;orthogonalLoop=1;jettySize=auto;html=1;" parent="1" source="Td3LOWsatYxlO6JrIiXO-1" target="9Ehmmtm3_JVQKLBLFFYA-1" edge="1">
          <mxGeometry relative="1" as="geometry" />
        </mxCell>
        <mxCell id="AmKEgYU7GPgbBf1n8wfx-2" style="rounded=0;orthogonalLoop=1;jettySize=auto;html=1;exitX=1;exitY=1;exitDx=0;exitDy=0;exitPerimeter=0;" edge="1" parent="1" source="Td3LOWsatYxlO6JrIiXO-1" target="AmKEgYU7GPgbBf1n8wfx-1">
          <mxGeometry relative="1" as="geometry" />
        </mxCell>
        <mxCell id="AmKEgYU7GPgbBf1n8wfx-21" style="rounded=0;orthogonalLoop=1;jettySize=auto;html=1;exitX=1;exitY=1;exitDx=0;exitDy=0;exitPerimeter=0;" edge="1" parent="1" source="Td3LOWsatYxlO6JrIiXO-1" target="AmKEgYU7GPgbBf1n8wfx-19">
          <mxGeometry relative="1" as="geometry" />
        </mxCell>
        <mxCell id="Td3LOWsatYxlO6JrIiXO-1" value="&lt;font style=&quot;vertical-align: inherit;&quot;&gt;&lt;font style=&quot;vertical-align: inherit;&quot;&gt;用户&lt;br&gt;&lt;br&gt;&lt;/font&gt;&lt;/font&gt;" style="shape=umlActor;verticalLabelPosition=bottom;verticalAlign=top;html=1;" parent="1" vertex="1">
          <mxGeometry x="20" y="250" width="30" height="60" as="geometry" />
        </mxCell>
        <mxCell id="Td3LOWsatYxlO6JrIiXO-4" value="&lt;font style=&quot;vertical-align: inherit;&quot;&gt;&lt;font style=&quot;vertical-align: inherit;&quot;&gt;登陆&lt;br&gt;&lt;/font&gt;&lt;/font&gt;" style="ellipse;whiteSpace=wrap;html=1;" parent="1" vertex="1">
          <mxGeometry x="264" y="70" width="140" height="70" as="geometry" />
        </mxCell>
        <mxCell id="Td3LOWsatYxlO6JrIiXO-5" value="&lt;font style=&quot;vertical-align: inherit;&quot;&gt;&lt;font style=&quot;vertical-align: inherit;&quot;&gt;&lt;font style=&quot;vertical-align: inherit;&quot;&gt;&lt;font style=&quot;vertical-align: inherit;&quot;&gt;注册&lt;/font&gt;&lt;/font&gt;&lt;br&gt;&lt;/font&gt;&lt;/font&gt;" style="ellipse;whiteSpace=wrap;html=1;" parent="1" vertex="1">
          <mxGeometry x="280" y="190" width="140" height="70" as="geometry" />
        </mxCell>
        <mxCell id="Td3LOWsatYxlO6JrIiXO-10" value="个人项目管理" style="ellipse;whiteSpace=wrap;html=1;" parent="1" vertex="1">
          <mxGeometry x="280" y="390" width="140" height="70" as="geometry" />
        </mxCell>
        <mxCell id="9Ehmmtm3_JVQKLBLFFYA-1" value="个人信息修改" style="ellipse;whiteSpace=wrap;html=1;" parent="1" vertex="1">
          <mxGeometry x="252" y="280" width="146" height="80" as="geometry" />
        </mxCell>
        <mxCell id="AmKEgYU7GPgbBf1n8wfx-1" value="个人日程管理" style="ellipse;whiteSpace=wrap;html=1;" vertex="1" parent="1">
          <mxGeometry x="300" y="660" width="140" height="70" as="geometry" />
        </mxCell>
        <mxCell id="AmKEgYU7GPgbBf1n8wfx-14" style="rounded=0;orthogonalLoop=1;jettySize=auto;html=1;exitX=0;exitY=1;exitDx=0;exitDy=0;exitPerimeter=0;" edge="1" parent="1" source="AmKEgYU7GPgbBf1n8wfx-3" target="AmKEgYU7GPgbBf1n8wfx-1">
          <mxGeometry relative="1" as="geometry">
            <mxPoint x="559.9999999999998" y="625" as="targetPoint" />
          </mxGeometry>
        </mxCell>
        <mxCell id="AmKEgYU7GPgbBf1n8wfx-3" value="项目管理员" style="shape=umlActor;verticalLabelPosition=bottom;verticalAlign=top;html=1;" vertex="1" parent="1">
          <mxGeometry x="770" y="310" width="30" height="60" as="geometry" />
        </mxCell>
        <mxCell id="AmKEgYU7GPgbBf1n8wfx-19" value="个人任务管理" style="ellipse;whiteSpace=wrap;html=1;" vertex="1" parent="1">
          <mxGeometry x="280" y="510" width="140" height="70" as="geometry" />
        </mxCell>
        <mxCell id="AmKEgYU7GPgbBf1n8wfx-23" style="rounded=0;orthogonalLoop=1;jettySize=auto;html=1;exitX=0.5;exitY=0.5;exitDx=0;exitDy=0;exitPerimeter=0;entryX=0.973;entryY=0.358;entryDx=0;entryDy=0;entryPerimeter=0;" edge="1" parent="1" source="AmKEgYU7GPgbBf1n8wfx-3" target="AmKEgYU7GPgbBf1n8wfx-19">
          <mxGeometry relative="1" as="geometry" />
        </mxCell>
        <mxCell id="AmKEgYU7GPgbBf1n8wfx-24" style="rounded=0;orthogonalLoop=1;jettySize=auto;html=1;exitX=0.5;exitY=0.5;exitDx=0;exitDy=0;exitPerimeter=0;entryX=1.021;entryY=0.613;entryDx=0;entryDy=0;entryPerimeter=0;" edge="1" parent="1" source="AmKEgYU7GPgbBf1n8wfx-3" target="Td3LOWsatYxlO6JrIiXO-10">
          <mxGeometry relative="1" as="geometry" />
        </mxCell>
      </root>
    </mxGraphModel>
  </diagram>
</mxfile>
